<svg xmlns="http://www.w3.org/2000/svg" width="1600" height="900" viewBox="0 0 1600 900">
<title>uta! Prism gameplay mockup</title>
<defs>
  <linearGradient id="bg" x1="0" y1="0" x2="1" y2="1">
    <stop offset="0" stop-color="#070B14"/>
    <stop offset="0.55" stop-color="#111A31"/>
    <stop offset="1" stop-color="#24163B"/>
  </linearGradient>
  <linearGradient id="panel" x1="0" y1="0" x2="1" y2="1">
    <stop offset="0" stop-color="#121A2D"/>
    <stop offset="1" stop-color="#0B1020"/>
  </linearGradient>
  <linearGradient id="cyanGlow" x1="0" y1="0" x2="1" y2="0">
    <stop offset="0" stop-color="#56B4E9" stop-opacity="0"/>
    <stop offset="0.5" stop-color="#39D9C6" stop-opacity="0.95"/>
    <stop offset="1" stop-color="#56B4E9" stop-opacity="0"/>
  </linearGradient>
  <filter id="blur"><feGaussianBlur stdDeviation="18"/></filter>
  <filter id="softGlow"><feGaussianBlur stdDeviation="5"/></filter>
  <filter id="smallGlow"><feGaussianBlur stdDeviation="2.2"/></filter>
  <pattern id="diag" width="12" height="12" patternUnits="userSpaceOnUse" patternTransform="rotate(45)">
    <rect width="5" height="12" fill="#FFFFFF" fill-opacity="0.18"/>
  </pattern>
  <style>
    text { font-family: 'Noto Sans CJK SC','Noto Sans CJK JP','Noto Sans',sans-serif; fill:#F4F7FF; }
    .muted { fill:#B9C2D9; }
    .subtle { fill:#7E8AA8; }
    .label { font-size:14px; font-weight:600; letter-spacing:0.4px; }
    .small { font-size:12px; }
  </style>
</defs>
<rect width="1600" height="900" fill="url(#bg)"/>
<circle cx="280" cy="430" r="280" fill="#5B3EA3" fill-opacity="0.34" filter="url(#blur)"/>
<circle cx="1210" cy="390" r="360" fill="#0F8E91" fill-opacity="0.30" filter="url(#blur)"/>
<path d="M0 700 Q350 500 720 690 T1600 610 V900 H0Z" fill="#03050A" fill-opacity="0.55"/>
<rect width="1600" height="900" fill="#000000" fill-opacity="0.32"/>
<text x="72" y="52" font-size="18" font-weight="800">uta! Prism / Gameplay</text>
<text x="1528" y="52" text-anchor="end" font-size="14" class="muted">VIDEO · 35% DIM · SYNCED 1.00×</text>
<rect x="64" y="86" width="1472" height="218" rx="22" fill="#0B1020" fill-opacity="0.92" stroke="#33415F" stroke-width="2"/>
<line x1="86" y1="98.1" x2="1514" y2="98.1" stroke="#DDE6FF" stroke-opacity="0.09" stroke-width="0.8"/>
<line x1="86" y1="110.2" x2="1514" y2="110.2" stroke="#DDE6FF" stroke-opacity="0.09" stroke-width="0.8"/>
<line x1="86" y1="122.3" x2="1514" y2="122.3" stroke="#DDE6FF" stroke-opacity="0.09" stroke-width="0.8"/>
<line x1="86" y1="134.4" x2="1514" y2="134.4" stroke="#DDE6FF" stroke-opacity="0.09" stroke-width="0.8"/>
<line x1="86" y1="146.6" x2="1514" y2="146.6" stroke="#DDE6FF" stroke-opacity="0.09" stroke-width="0.8"/>
<line x1="86" y1="158.7" x2="1514" y2="158.7" stroke="#DDE6FF" stroke-opacity="0.25" stroke-width="1.5"/>
<line x1="86" y1="170.8" x2="1514" y2="170.8" stroke="#DDE6FF" stroke-opacity="0.09" stroke-width="0.8"/>
<line x1="86" y1="182.9" x2="1514" y2="182.9" stroke="#DDE6FF" stroke-opacity="0.09" stroke-width="0.8"/>
<line x1="86" y1="195.0" x2="1514" y2="195.0" stroke="#DDE6FF" stroke-opacity="0.09" stroke-width="0.8"/>
<line x1="86" y1="207.1" x2="1514" y2="207.1" stroke="#DDE6FF" stroke-opacity="0.09" stroke-width="0.8"/>
<line x1="86" y1="219.2" x2="1514" y2="219.2" stroke="#DDE6FF" stroke-opacity="0.09" stroke-width="0.8"/>
<line x1="86" y1="231.3" x2="1514" y2="231.3" stroke="#DDE6FF" stroke-opacity="0.25" stroke-width="1.5"/>
<line x1="86" y1="243.4" x2="1514" y2="243.4" stroke="#DDE6FF" stroke-opacity="0.09" stroke-width="0.8"/>
<line x1="86" y1="255.6" x2="1514" y2="255.6" stroke="#DDE6FF" stroke-opacity="0.09" stroke-width="0.8"/>
<line x1="86" y1="267.7" x2="1514" y2="267.7" stroke="#DDE6FF" stroke-opacity="0.09" stroke-width="0.8"/>
<line x1="86" y1="279.8" x2="1514" y2="279.8" stroke="#DDE6FF" stroke-opacity="0.09" stroke-width="0.8"/>
<line x1="86" y1="291.9" x2="1514" y2="291.9" stroke="#DDE6FF" stroke-opacity="0.09" stroke-width="0.8"/>
<line x1="169.1" y1="104" x2="169.1" y2="286" stroke="#DDE6FF" stroke-opacity="0.08" stroke-width="0.8"/>
<line x1="274.3" y1="104" x2="274.3" y2="286" stroke="#DDE6FF" stroke-opacity="0.08" stroke-width="0.8"/>
<line x1="379.4" y1="104" x2="379.4" y2="286" stroke="#DDE6FF" stroke-opacity="0.08" stroke-width="0.8"/>
<line x1="484.6" y1="104" x2="484.6" y2="286" stroke="#DDE6FF" stroke-opacity="0.08" stroke-width="0.8"/>
<line x1="589.7" y1="104" x2="589.7" y2="286" stroke="#DDE6FF" stroke-opacity="0.08" stroke-width="0.8"/>
<line x1="694.9" y1="104" x2="694.9" y2="286" stroke="#DDE6FF" stroke-opacity="0.08" stroke-width="0.8"/>
<line x1="800.0" y1="104" x2="800.0" y2="286" stroke="#DDE6FF" stroke-opacity="0.08" stroke-width="0.8"/>
<line x1="905.1" y1="104" x2="905.1" y2="286" stroke="#DDE6FF" stroke-opacity="0.08" stroke-width="0.8"/>
<line x1="1010.3" y1="104" x2="1010.3" y2="286" stroke="#DDE6FF" stroke-opacity="0.08" stroke-width="0.8"/>
<line x1="1115.4" y1="104" x2="1115.4" y2="286" stroke="#DDE6FF" stroke-opacity="0.08" stroke-width="0.8"/>
<line x1="1220.6" y1="104" x2="1220.6" y2="286" stroke="#DDE6FF" stroke-opacity="0.08" stroke-width="0.8"/>
<line x1="1325.7" y1="104" x2="1325.7" y2="286" stroke="#DDE6FF" stroke-opacity="0.08" stroke-width="0.8"/>
<line x1="1430.9" y1="104" x2="1430.9" y2="286" stroke="#DDE6FF" stroke-opacity="0.08" stroke-width="0.8"/>
<rect x="184" y="196" width="155" height="16" rx="8" fill="#82C7FF" stroke="#F4F7FF" stroke-width="1.6"/>
<rect x="372" y="170" width="220" height="16" rx="8" fill="#F6D365" stroke="#F4F7FF" stroke-width="1.6"/>
<rect x="622" y="219" width="120" height="16" rx="8" fill="#C9A7FF" stroke="#F4F7FF" stroke-width="1.6"/>
<rect x="622" y="219" width="120" height="16" rx="8" fill="url(#diag)"/>
<rect x="768" y="142" width="268" height="16" rx="8" fill="#82C7FF" stroke="#F4F7FF" stroke-width="1.6"/>
<rect x="1070" y="191" width="190" height="16" rx="8" fill="#FFB86B" stroke="#F4F7FF" stroke-width="1.6"/>
<rect x="1088" y="196" width="14" height="6" rx="3" fill="#07101F" fill-opacity="0.55"/>
<rect x="1123" y="196" width="14" height="6" rx="3" fill="#07101F" fill-opacity="0.55"/>
<rect x="1158" y="196" width="14" height="6" rx="3" fill="#07101F" fill-opacity="0.55"/>
<rect x="1193" y="196" width="14" height="6" rx="3" fill="#07101F" fill-opacity="0.55"/>
<rect x="1228" y="196" width="14" height="6" rx="3" fill="#07101F" fill-opacity="0.55"/>
<rect x="1288" y="158" width="230" height="16" rx="8" fill="#82C7FF" stroke="#F4F7FF" stroke-width="1.6"/>
<path d="M86 238 C160 215 220 220 285 205 S390 165 475 185 S610 248 690 226 S820 145 930 188 S1120 256 1230 220 S1400 142 1515 176" fill="none" stroke="#39D9C6" stroke-width="18" stroke-opacity="0.18" filter="url(#smallGlow)"/>
<path d="M86 220 C160 202 220 205 285 198 S390 150 475 176 S610 235 690 220 S820 140 930 178 S1120 242 1230 210 S1400 130 1515 168" fill="none" stroke="#6EB6FF" stroke-width="4"/>
<path d="M86 238 C160 215 220 220 285 205 S390 165 475 185 S610 248 690 226 S820 145 930 188 S1120 256 1230 220 S1400 142 1515 176" fill="none" stroke="#39D9C6" stroke-width="7"/>
<line x1="432.0" y1="98" x2="432.0" y2="292" stroke="#F4F7FF" stroke-width="3"/>
<line x1="432.0" y1="98" x2="432.0" y2="292" stroke="#B899FF" stroke-width="10" stroke-opacity="0.25" filter="url(#smallGlow)"/>
<polygon points="432.0,88 445.0,102 432.0,116 419.0,102" fill="#B899FF" stroke="#FFFFFF"/>
<circle cx="98" cy="330" r="5" fill="#6EB6FF"/><text x="112" y="335" font-size="13" class="muted">Reference</text>
<circle cx="208" cy="330" r="5" fill="#39D9C6"/><text x="222" y="335" font-size="13" class="muted">Live voice · solid = accurate</text>
<rect x="1216" y="346" width="320" height="164" rx="16" fill="#0B1020" fill-opacity="0.94" stroke="#33415F"/>
<rect x="1216" y="346" width="7" height="164" rx="4" fill="#B899FF"/>
<text x="1240" y="384" font-size="28" font-weight="900">92.84 / 100</text>
<text x="1240" y="416" font-size="14" class="muted">综合 93%   音程 95%   覆盖 91%</text>
<text x="1240" y="444" font-size="14" class="muted">连击 38   精准 16   Faithful</text>
<rect x="1238" y="462" width="170" height="32" rx="16" fill="#121A2D" stroke="#56B4E9"/>
<text x="1254" y="484" font-size="14" font-weight="800">GREAT · +12c</text>
<text x="800" y="690" text-anchor="middle" font-size="18" fill="#AFC8FF">きょう  きみ  と  うたう</text>
<text x="800" y="744" text-anchor="middle" font-size="44" font-weight="900">今天和你一起歌唱</text>
<rect x="532" y="762" width="536" height="7" rx="4" fill="#39D9C6"/>
<text x="800" y="812" text-anchor="middle" font-size="25" class="muted">下一句会在这里提前显示</text>
<circle cx="530" cy="520" r="4" fill="#39D9C6" fill-opacity="0.75"/>
<circle cx="584" cy="490" r="5" fill="#6EB6FF" fill-opacity="0.75"/>
<circle cx="650" cy="540" r="6" fill="#39D9C6" fill-opacity="0.75"/>
<circle cx="724" cy="500" r="4" fill="#6EB6FF" fill-opacity="0.75"/>
<circle cx="795" cy="535" r="5" fill="#39D9C6" fill-opacity="0.75"/>
<circle cx="890" cy="492" r="6" fill="#6EB6FF" fill-opacity="0.75"/>
<rect x="64" y="854" width="1472" height="30" rx="15" fill="#121A2D" fill-opacity="0.86"/>
<text x="86" y="875" font-size="13" class="muted">关键元素始终保留中性高对比轮廓；颜色之外还使用线型、纹理和图标编码。Reduced Motion 下粒子为 0，动画仅保留 80 ms 淡入淡出。</text>
</svg>